<mxfile host="www.draw.io" modified="2020-04-18T07:54:53.159Z" agent="5.0 (Macintosh; Intel Mac OS X 10_14_6) AppleWebKit/537.36 (KHTML, like Gecko) Chrome/80.0.3987.149 Safari/537.36" etag="PY_qvx0TqiHa2ggOU69p" version="12.9.5" type="github">
  <diagram id="GZ8h7QL0BpFVQE84wsnc" name="Page-1">
    <mxGraphModel dx="1373" dy="868" grid="1" gridSize="10" guides="1" tooltips="1" connect="1" arrows="1" fold="1" page="1" pageScale="1" pageWidth="1600" pageHeight="900" math="0" shadow="0">
      <root>
        <mxCell id="0" />
        <mxCell id="1" parent="0" />
        <mxCell id="xnrWjppSDBu8TEkVuI01-26" style="edgeStyle=orthogonalEdgeStyle;rounded=0;orthogonalLoop=1;jettySize=auto;html=1;entryX=0;entryY=0.5;entryDx=0;entryDy=0;" parent="1" source="xnrWjppSDBu8TEkVuI01-1" target="xnrWjppSDBu8TEkVuI01-21" edge="1">
          <mxGeometry relative="1" as="geometry" />
        </mxCell>
        <mxCell id="xnrWjppSDBu8TEkVuI01-1" value="&lt;div style=&quot;text-align: center; font-size: 12px;&quot;&gt;&lt;span style=&quot;font-size: 12px;&quot;&gt;Kafka&lt;/span&gt;&lt;/div&gt;" style="ellipse;shape=cloud;whiteSpace=wrap;html=1;rounded=0;strokeColor=#b85450;strokeWidth=1;fillColor=#f8cecc;gradientColor=#ea6b66;fontFamily=Verdana;fontSize=12;opacity=60;align=center;fontStyle=1" parent="1" vertex="1">
          <mxGeometry x="340" y="480" width="120" height="80" as="geometry" />
        </mxCell>
        <mxCell id="xnrWjppSDBu8TEkVuI01-15" value="" style="group" parent="1" vertex="1" connectable="0">
          <mxGeometry x="90" y="360" width="140" height="134" as="geometry" />
        </mxCell>
        <mxCell id="xnrWjppSDBu8TEkVuI01-3" value="" style="rounded=1;whiteSpace=wrap;html=1;strokeColor=#FF3333;strokeWidth=1;fillColor=none;fontFamily=Verdana;fontSize=10;opacity=60;align=left;dashed=1;" parent="xnrWjppSDBu8TEkVuI01-15" vertex="1">
          <mxGeometry width="140" height="134" as="geometry" />
        </mxCell>
        <mxCell id="xnrWjppSDBu8TEkVuI01-4" value="filebeat" style="rounded=1;whiteSpace=wrap;html=1;strokeColor=#d79b00;strokeWidth=1;fillColor=#ffe6cc;fontFamily=Verdana;fontSize=10;align=left;spacingLeft=10;" parent="xnrWjppSDBu8TEkVuI01-15" vertex="1">
          <mxGeometry x="10" y="10" width="120" height="30" as="geometry" />
        </mxCell>
        <mxCell id="xnrWjppSDBu8TEkVuI01-6" value="metricbeat" style="rounded=1;whiteSpace=wrap;html=1;strokeColor=#6c8ebf;strokeWidth=1;fillColor=#dae8fc;fontFamily=Verdana;fontSize=10;align=left;spacingLeft=10;" parent="xnrWjppSDBu8TEkVuI01-15" vertex="1">
          <mxGeometry x="10" y="50" width="120" height="30" as="geometry" />
        </mxCell>
        <mxCell id="xnrWjppSDBu8TEkVuI01-9" value="packetbeat" style="rounded=1;whiteSpace=wrap;html=1;strokeColor=#82b366;strokeWidth=1;fillColor=#d5e8d4;fontFamily=Verdana;fontSize=10;align=left;spacingLeft=10;" parent="xnrWjppSDBu8TEkVuI01-15" vertex="1">
          <mxGeometry x="10" y="90" width="120" height="30" as="geometry" />
        </mxCell>
        <mxCell id="xnrWjppSDBu8TEkVuI01-19" style="edgeStyle=orthogonalEdgeStyle;rounded=0;orthogonalLoop=1;jettySize=auto;html=1;exitX=1;exitY=0.75;exitDx=0;exitDy=0;" parent="1" source="xnrWjppSDBu8TEkVuI01-3" target="xnrWjppSDBu8TEkVuI01-1" edge="1">
          <mxGeometry relative="1" as="geometry">
            <Array as="points">
              <mxPoint x="300" y="461" />
              <mxPoint x="300" y="520" />
            </Array>
          </mxGeometry>
        </mxCell>
        <mxCell id="xnrWjppSDBu8TEkVuI01-25" value="" style="group" parent="1" vertex="1" connectable="0">
          <mxGeometry x="520" y="453" width="140" height="134" as="geometry" />
        </mxCell>
        <mxCell id="xnrWjppSDBu8TEkVuI01-20" value="" style="group" parent="xnrWjppSDBu8TEkVuI01-25" vertex="1" connectable="0">
          <mxGeometry width="140" height="134" as="geometry" />
        </mxCell>
        <mxCell id="xnrWjppSDBu8TEkVuI01-21" value="" style="rounded=1;whiteSpace=wrap;html=1;strokeColor=#FF3333;strokeWidth=1;fillColor=none;fontFamily=Verdana;fontSize=10;opacity=60;align=left;dashed=1;" parent="xnrWjppSDBu8TEkVuI01-20" vertex="1">
          <mxGeometry width="140" height="134" as="geometry" />
        </mxCell>
        <mxCell id="xnrWjppSDBu8TEkVuI01-22" value="logstash" style="rounded=1;whiteSpace=wrap;html=1;strokeColor=#d6b656;strokeWidth=1;fillColor=#fff2cc;fontFamily=Verdana;fontSize=10;align=left;spacingLeft=10;" parent="xnrWjppSDBu8TEkVuI01-20" vertex="1">
          <mxGeometry x="10" y="10" width="120" height="30" as="geometry" />
        </mxCell>
        <mxCell id="xnrWjppSDBu8TEkVuI01-24" value="logstash" style="rounded=1;whiteSpace=wrap;html=1;strokeColor=#d6b656;strokeWidth=1;fillColor=#fff2cc;fontFamily=Verdana;fontSize=10;align=left;spacingLeft=10;" parent="xnrWjppSDBu8TEkVuI01-20" vertex="1">
          <mxGeometry x="10" y="90" width="120" height="30" as="geometry" />
        </mxCell>
        <mxCell id="xnrWjppSDBu8TEkVuI01-74" style="edgeStyle=orthogonalEdgeStyle;rounded=0;orthogonalLoop=1;jettySize=auto;html=1;entryX=0;entryY=0.5;entryDx=0;entryDy=0;startArrow=classic;startFill=1;" parent="1" source="xnrWjppSDBu8TEkVuI01-67" target="xnrWjppSDBu8TEkVuI01-71" edge="1">
          <mxGeometry relative="1" as="geometry" />
        </mxCell>
        <mxCell id="xnrWjppSDBu8TEkVuI01-67" value="&lt;div style=&quot;text-align: center ; font-size: 12px&quot;&gt;&lt;span style=&quot;font-size: 12px&quot;&gt;ES Cluster&lt;/span&gt;&lt;/div&gt;" style="ellipse;shape=cloud;whiteSpace=wrap;html=1;rounded=0;strokeColor=#6c8ebf;strokeWidth=1;fillColor=#dae8fc;gradientColor=#7ea6e0;fontFamily=Verdana;fontSize=12;opacity=60;align=center;fontStyle=1" parent="1" vertex="1">
          <mxGeometry x="740" y="480" width="120" height="80" as="geometry" />
        </mxCell>
        <mxCell id="xnrWjppSDBu8TEkVuI01-68" style="edgeStyle=orthogonalEdgeStyle;rounded=0;orthogonalLoop=1;jettySize=auto;html=1;" parent="1" source="xnrWjppSDBu8TEkVuI01-21" target="xnrWjppSDBu8TEkVuI01-67" edge="1">
          <mxGeometry relative="1" as="geometry">
            <mxPoint x="720" y="550" as="targetPoint" />
          </mxGeometry>
        </mxCell>
        <mxCell id="xnrWjppSDBu8TEkVuI01-69" value="" style="group" parent="1" vertex="1" connectable="0">
          <mxGeometry x="940" y="453" width="140" height="134" as="geometry" />
        </mxCell>
        <mxCell id="xnrWjppSDBu8TEkVuI01-70" value="" style="group" parent="xnrWjppSDBu8TEkVuI01-69" vertex="1" connectable="0">
          <mxGeometry width="140" height="134" as="geometry" />
        </mxCell>
        <mxCell id="xnrWjppSDBu8TEkVuI01-71" value="" style="rounded=1;whiteSpace=wrap;html=1;strokeColor=#FF3333;strokeWidth=1;fillColor=none;fontFamily=Verdana;fontSize=10;opacity=60;align=left;dashed=1;" parent="xnrWjppSDBu8TEkVuI01-70" vertex="1">
          <mxGeometry width="140" height="134" as="geometry" />
        </mxCell>
        <mxCell id="xnrWjppSDBu8TEkVuI01-72" value="kibana" style="rounded=1;whiteSpace=wrap;html=1;strokeColor=#d6b656;strokeWidth=1;fillColor=#fff2cc;fontFamily=Verdana;fontSize=10;align=left;spacingLeft=10;" parent="xnrWjppSDBu8TEkVuI01-70" vertex="1">
          <mxGeometry x="10" y="10" width="120" height="30" as="geometry" />
        </mxCell>
        <mxCell id="xnrWjppSDBu8TEkVuI01-73" value="kibana" style="rounded=1;whiteSpace=wrap;html=1;strokeColor=#d6b656;strokeWidth=1;fillColor=#fff2cc;fontFamily=Verdana;fontSize=10;align=left;spacingLeft=10;" parent="xnrWjppSDBu8TEkVuI01-70" vertex="1">
          <mxGeometry x="10" y="90" width="120" height="30" as="geometry" />
        </mxCell>
        <mxCell id="rvDjTY9M8Ar2wrNe7Sa7-8" value="" style="group" vertex="1" connectable="0" parent="1">
          <mxGeometry x="90" y="530" width="140" height="134" as="geometry" />
        </mxCell>
        <mxCell id="rvDjTY9M8Ar2wrNe7Sa7-9" value="" style="rounded=1;whiteSpace=wrap;html=1;strokeColor=#FF3333;strokeWidth=1;fillColor=none;fontFamily=Verdana;fontSize=10;opacity=60;align=left;dashed=1;" vertex="1" parent="rvDjTY9M8Ar2wrNe7Sa7-8">
          <mxGeometry width="140" height="134" as="geometry" />
        </mxCell>
        <mxCell id="rvDjTY9M8Ar2wrNe7Sa7-10" value="filebeat" style="rounded=1;whiteSpace=wrap;html=1;strokeColor=#d79b00;strokeWidth=1;fillColor=#ffe6cc;fontFamily=Verdana;fontSize=10;align=left;spacingLeft=10;" vertex="1" parent="rvDjTY9M8Ar2wrNe7Sa7-8">
          <mxGeometry x="10" y="10" width="120" height="30" as="geometry" />
        </mxCell>
        <mxCell id="rvDjTY9M8Ar2wrNe7Sa7-11" value="metricbeat" style="rounded=1;whiteSpace=wrap;html=1;strokeColor=#6c8ebf;strokeWidth=1;fillColor=#dae8fc;fontFamily=Verdana;fontSize=10;align=left;spacingLeft=10;" vertex="1" parent="rvDjTY9M8Ar2wrNe7Sa7-8">
          <mxGeometry x="10" y="50" width="120" height="30" as="geometry" />
        </mxCell>
        <mxCell id="rvDjTY9M8Ar2wrNe7Sa7-12" value="packetbeat" style="rounded=1;whiteSpace=wrap;html=1;strokeColor=#82b366;strokeWidth=1;fillColor=#d5e8d4;fontFamily=Verdana;fontSize=10;align=left;spacingLeft=10;" vertex="1" parent="rvDjTY9M8Ar2wrNe7Sa7-8">
          <mxGeometry x="10" y="90" width="120" height="30" as="geometry" />
        </mxCell>
        <mxCell id="rvDjTY9M8Ar2wrNe7Sa7-13" style="edgeStyle=orthogonalEdgeStyle;rounded=0;orthogonalLoop=1;jettySize=auto;html=1;startArrow=none;startFill=0;exitX=1.001;exitY=0.319;exitDx=0;exitDy=0;exitPerimeter=0;" edge="1" parent="1" source="rvDjTY9M8Ar2wrNe7Sa7-9" target="xnrWjppSDBu8TEkVuI01-1">
          <mxGeometry relative="1" as="geometry">
            <Array as="points">
              <mxPoint x="230" y="570" />
              <mxPoint x="300" y="570" />
              <mxPoint x="300" y="520" />
            </Array>
          </mxGeometry>
        </mxCell>
        <mxCell id="rvDjTY9M8Ar2wrNe7Sa7-15" value="OpenShift" style="text;html=1;strokeColor=none;fillColor=none;align=center;verticalAlign=middle;whiteSpace=wrap;rounded=0;fontStyle=3;fontSize=14;" vertex="1" parent="1">
          <mxGeometry x="100" y="510" width="40" height="20" as="geometry" />
        </mxCell>
        <mxCell id="rvDjTY9M8Ar2wrNe7Sa7-16" value="&lt;b&gt;&lt;i&gt;&lt;font style=&quot;font-size: 14px&quot;&gt;metal &amp;amp; VMs&lt;/font&gt;&lt;/i&gt;&lt;/b&gt;" style="text;html=1;strokeColor=none;fillColor=none;align=center;verticalAlign=middle;whiteSpace=wrap;rounded=0;" vertex="1" parent="1">
          <mxGeometry x="80" y="340" width="90" height="20" as="geometry" />
        </mxCell>
      </root>
    </mxGraphModel>
  </diagram>
</mxfile>
